<svg xmlns="http://www.w3.org/2000/svg" width="512" height="512" viewBox="0 0 512 512">
  <defs>
    <linearGradient id="bg" x1="0%" y1="0%" x2="100%" y2="100%">
      <stop offset="0%" style="stop-color:#0f1128"/>
      <stop offset="100%" style="stop-color:#0a0a1a"/>
    </linearGradient>
  </defs>
  <rect width="512" height="512" rx="80" fill="url(#bg)"/>
  <!-- 3x3 grid of blocks -->
  <rect x="80" y="80" width="100" height="100" rx="14" fill="#ff3b7a"/>
  <rect x="196" y="80" width="100" height="100" rx="14" fill="#a855f7"/>
  <rect x="312" y="80" width="100" height="100" rx="14" fill="#6366f1"/>
  <rect x="80" y="196" width="100" height="100" rx="14" fill="#3b82f6"/>
  <rect x="196" y="196" width="100" height="100" rx="14" fill="#22d3ee"/>
  <rect x="312" y="196" width="100" height="100" rx="14" fill="#10b981"/>
  <rect x="80" y="312" width="100" height="100" rx="14" fill="#f59e0b"/>
  <rect x="196" y="312" width="100" height="100" rx="14" fill="#ef4444"/>
  <rect x="312" y="312" width="100" height="100" rx="14" fill="#6c8cff"/>
  <!-- Subtle inner highlights -->
  <rect x="86" y="86" width="88" height="20" rx="8" fill="rgba(255,255,255,0.2)"/>
  <rect x="202" y="86" width="88" height="20" rx="8" fill="rgba(255,255,255,0.2)"/>
  <rect x="318" y="86" width="88" height="20" rx="8" fill="rgba(255,255,255,0.2)"/>
  <rect x="86" y="202" width="88" height="20" rx="8" fill="rgba(255,255,255,0.2)"/>
  <rect x="202" y="202" width="88" height="20" rx="8" fill="rgba(255,255,255,0.2)"/>
  <rect x="318" y="202" width="88" height="20" rx="8" fill="rgba(255,255,255,0.2)"/>
  <rect x="86" y="318" width="88" height="20" rx="8" fill="rgba(255,255,255,0.2)"/>
  <rect x="202" y="318" width="88" height="20" rx="8" fill="rgba(255,255,255,0.2)"/>
  <rect x="318" y="318" width="88" height="20" rx="8" fill="rgba(255,255,255,0.2)"/>
</svg>
