<svg xmlns="http://www.w3.org/2000/svg" width="1200" height="630" viewBox="0 0 1200 630">
  <defs>
    <linearGradient id="bg" x1="0%" y1="0%" x2="100%" y2="100%">
      <stop offset="0%" style="stop-color:#0a0a1a"/>
      <stop offset="50%" style="stop-color:#0f1128"/>
      <stop offset="100%" style="stop-color:#0a0a1a"/>
    </linearGradient>
  </defs>
  <rect width="1200" height="630" fill="url(#bg)"/>
  <!-- Grid hint -->
  <g opacity="0.15">
    <rect x="700" y="120" width="380" height="380" rx="12" fill="none" stroke="#6c8cff" stroke-width="2"/>
    <line x1="826" y1="120" x2="826" y2="500" stroke="#6c8cff" stroke-width="1"/>
    <line x1="953" y1="120" x2="953" y2="500" stroke="#6c8cff" stroke-width="1"/>
    <line x1="700" y1="246" x2="1080" y2="246" stroke="#6c8cff" stroke-width="1"/>
    <line x1="700" y1="373" x2="1080" y2="373" stroke="#6c8cff" stroke-width="1"/>
  </g>
  <!-- Colored blocks -->
  <rect x="742" y="162" width="38" height="38" rx="6" fill="#ff3b7a" opacity="0.9"/>
  <rect x="784" y="162" width="38" height="38" rx="6" fill="#ff3b7a" opacity="0.9"/>
  <rect x="742" y="204" width="38" height="38" rx="6" fill="#ff3b7a" opacity="0.9"/>
  <rect x="868" y="288" width="38" height="38" rx="6" fill="#22d3ee" opacity="0.9"/>
  <rect x="910" y="288" width="38" height="38" rx="6" fill="#22d3ee" opacity="0.9"/>
  <rect x="952" y="288" width="38" height="38" rx="6" fill="#22d3ee" opacity="0.9"/>
  <rect x="910" y="330" width="38" height="38" rx="6" fill="#22d3ee" opacity="0.9"/>
  <rect x="826" y="415" width="38" height="38" rx="6" fill="#a855f7" opacity="0.9"/>
  <rect x="868" y="415" width="38" height="38" rx="6" fill="#a855f7" opacity="0.9"/>
  <rect x="995" y="162" width="38" height="38" rx="6" fill="#10b981" opacity="0.9"/>
  <rect x="995" y="204" width="38" height="38" rx="6" fill="#10b981" opacity="0.9"/>
  <rect x="995" y="246" width="38" height="38" rx="6" fill="#10b981" opacity="0.9"/>
  <rect x="995" y="288" width="38" height="38" rx="6" fill="#10b981" opacity="0.9"/>
  <!-- Title -->
  <text x="80" y="260" font-family="Inter, Arial, sans-serif" font-size="72" font-weight="900" fill="#e8ecf4" letter-spacing="-2">BlockDoku</text>
  <!-- Subtitle -->
  <text x="80" y="320" font-family="Inter, Arial, sans-serif" font-size="28" font-weight="600" fill="#6c8cff">Free Online Block Puzzle Game</text>
  <!-- Description -->
  <text x="80" y="380" font-family="Inter, Arial, sans-serif" font-size="20" fill="rgba(255,255,255,0.5)">Play free in your browser. No download required.</text>
  <!-- URL -->
  <text x="80" y="560" font-family="Inter, Arial, sans-serif" font-size="18" fill="rgba(255,255,255,0.3)">blockdoku-web.vercel.app</text>
</svg>
